# xmcd
#
# Track frame offsets:
# 150
# 10124
# 22523
# 33459
# 46988
# 60029
# 70495
# 82721
# 96007
# 107104
# 118589
# 129943
#
# Disc length: 1877 seconds
#
#
# Revision: 0
# Processed by: cddbd v1.5.2PL0 Copyright (c) Steve Scherf et al.
# Submitted via: FreeRIP 2.951 
#
DISCID=8007530c
DTITLE=Willie Nelson - ...And Then I wrote
DYEAR=1900
DGENRE=Country
TTITLE0=Touch Me
TTITLE1=Wake Me When It's Over
TTITLE2=Hello Walls
TTITLE3=Funny How Time Slips Away
TTITLE4=Crazy
TTITLE5=The Part Where I Cry
TTITLE6=Mr. Record Man
TTITLE7=Three Days
TTITLE8=One Step Beyond
TTITLE9=Undo The Right
TTITLE10=Darkness On The Face Of The Earth
TTITLE11=Where My House Lives
EXTD=His first album?
EXTT0=
EXTT1=
EXTT2=
EXTT3=
EXTT4=
EXTT5=
EXTT6=
EXTT7=
EXTT8=
EXTT9=
EXTT10=
EXTT11=
PLAYORDER=
